<svg xmlns="http://www.w3.org/2000/svg" viewBox="0 0 100 100" width="100" height="100">
  <!-- Stylized AUV Logo for favicon -->
  <rect width="100" height="100" fill="#ffffff" rx="20"/>
  <g id="auv-favicon">
    <!-- A - Dark blue with teal accent -->
    <path d="M 10 70 L 10 25 L 25 25 L 30 40 L 35 25 L 50 25 L 50 70 L 40 70 L 40 50 L 35 60 L 30 60 L 25 50 L 25 70 Z" fill="#1e3a8a"/>
    <path d="M 25 50 L 30 35 L 35 50 L 32 55 L 30 50 L 27 55 Z" fill="#14b8a6"/>
    
    <!-- U - Teal -->
    <path d="M 55 25 L 55 55 Q 55 62 60 62 Q 65 62 65 55 L 65 25 L 75 25 L 75 55 Q 75 70 60 70 Q 45 70 45 55 L 45 25 Z" fill="#14b8a6"/>
    
    <!-- V - Dark blue -->
    <path d="M 80 25 L 90 70 L 100 25 L 110 25 L 95 80 L 85 80 L 70 25 Z" fill="#1e3a8a"/>
  </g>
</svg>
