<svg xmlns="http://www.w3.org/2000/svg" viewBox="0 0 200 200" width="200" height="200">
  <!-- Stylized AUV Logo (icon only, no text) -->
  <g id="auv-icon">
    <!-- A - Dark blue with teal accent -->
    <path d="M 20 150 L 20 50 L 50 50 L 60 80 L 70 50 L 100 50 L 100 150 L 80 150 L 80 100 L 70 120 L 60 120 L 50 100 L 50 150 Z" fill="#1e3a8a"/>
    <!-- Teal accent on A -->
    <path d="M 50 100 L 60 70 L 70 100 L 65 110 L 60 100 L 55 110 Z" fill="#14b8a6"/>
    
    <!-- U - Teal, connected from A -->
    <path d="M 105 50 L 105 120 Q 105 135 120 135 Q 135 135 135 120 L 135 50 L 155 50 L 155 120 Q 155 150 120 150 Q 85 150 85 120 L 85 50 Z" fill="#14b8a6"/>
    
    <!-- V - Dark blue, connected from U -->
    <path d="M 160 50 L 180 150 L 200 50 L 220 50 L 190 160 L 170 160 L 140 50 Z" fill="#1e3a8a"/>
  </g>
</svg>

