<svg xmlns="http://www.w3.org/2000/svg" viewBox="0 0 400 120" width="400" height="120">
  <!-- Stylized AUV Logo -->
  <g id="auv-logo">
    <!-- A - Dark blue with teal accent -->
    <path d="M 20 80 L 20 30 L 40 30 L 50 50 L 60 30 L 80 30 L 80 80 L 65 80 L 65 55 L 55 75 L 45 75 L 35 55 L 35 80 Z" fill="#1e3a8a"/>
    <!-- Teal accent on A -->
    <path d="M 35 55 L 45 40 L 55 55 L 50 60 L 45 55 L 40 60 Z" fill="#14b8a6"/>
    
    <!-- U - Teal, connected from A -->
    <path d="M 85 30 L 85 65 Q 85 75 95 75 Q 105 75 105 65 L 105 30 L 120 30 L 120 65 Q 120 85 100 85 Q 80 85 80 65 L 80 30 Z" fill="#14b8a6"/>
    
    <!-- V - Dark blue, connected from U -->
    <path d="M 125 30 L 145 80 L 160 30 L 175 30 L 150 85 L 135 85 L 110 30 Z" fill="#1e3a8a"/>
  </g>
  
  <!-- Company Name -->
  <text x="200" y="105" font-family="Arial, sans-serif" font-size="14" font-weight="normal" fill="#000000" text-anchor="middle">
    <tspan x="200" dy="0">Advanced Universal Ventures,</tspan>
    <tspan x="200" dy="16" text-anchor="middle">LLC</tspan>
  </text>
</svg>

